<svg class="{{ with .class }}{{ . }} {{ end }}icon icon-twitter" width="24" height="24" viewBox="0 0 24 24" width="24px" xml:space="preserve" xmlns="http://www.w3.org/2000/svg" xmlns:xlink="http://www.w3.org/1999/xlink"><g><path d="M20.3,10.8c-0.2,0-0.4,0-0.6,0.1c-0.5-2.6-2.6-4.5-5.2-4.5c-0.7,0-1.3,0.1-1.9,0.4C12.2,6.9,12,7.2,12,7.5v9.2   c0,0.4,0.3,0.8,0.8,0.8l7.5,0c1.8,0,3.2-1.5,3.2-3.4C23.5,12.4,22.1,10.8,20.3,10.8z"/><path d="M5.5,11.7c0-0.3-0.3-0.6-0.6-0.6c-0.3,0-0.6,0.3-0.6,0.6L4,14.3L4.2,17c0,0.4,0.3,0.6,0.6,0.6c0.3,0,0.6-0.3,0.6-0.6   c0-0.2-0.1-0.4-0.3-0.5L5,14.3l0.2-2.1C5.3,12.2,5.5,12,5.5,11.7z"/><path d="M7.4,9.2c0-0.4-0.3-0.7-0.7-0.7C6.3,8.6,6,8.9,6,9.2l-0.2,5.1L6,16.9c0,0.4,0.3,0.7,0.7,0.7c0.4,0,0.7-0.3,0.7-0.7   c0-0.3-0.2-0.5-0.4-0.5l-0.1-2.1L7,9.7C7.2,9.7,7.4,9.5,7.4,9.2z"/><path d="M3.6,11.6C3.6,11.3,3.3,11,3,11c-0.3,0-0.6,0.2-0.6,0.6l-0.2,2.7l0.2,2.5c0,0.3,0.3,0.6,0.6,0.6c0.3,0,0.6-0.2,0.6-0.6   c0-0.2-0.1-0.4-0.3-0.5l-0.2-2.1l0.2-2.2C3.5,12,3.6,11.8,3.6,11.6z"/><path d="M8.8,9.1c0.3,0,0.5-0.2,0.5-0.5c0-0.4-0.3-0.7-0.7-0.7c-0.4,0-0.7,0.3-0.7,0.7l-0.1,5.7l0.1,2.6c0,0.4,0.3,0.7,0.7,0.7   c0.4,0,0.7-0.3,0.7-0.7c0-0.3-0.2-0.5-0.5-0.5c0,0,0,0,0,0l-0.1-2.1L8.8,9.1C8.8,9.1,8.8,9.1,8.8,9.1z"/><path d="M1.8,13.5c0-0.3-0.3-0.5-0.6-0.5c-0.3,0-0.5,0.2-0.6,0.5l-0.2,1.4c0,0,0,0.1,0,0.1l0.2,1.4c0,0.3,0.3,0.5,0.6,0.5   c0.3,0,0.5-0.2,0.6-0.5c0-0.2-0.1-0.4-0.2-0.5l-0.1-0.9l0.1-1C1.7,13.8,1.8,13.7,1.8,13.5z"/><path d="M10.8,9.5c0.3,0,0.5-0.2,0.5-0.5c0-0.4-0.3-0.8-0.8-0.8c-0.4,0-0.8,0.3-0.8,0.8l-0.1,5.3l0.1,2.5c0,0.4,0.3,0.8,0.8,0.8   c0.4,0,0.7-0.3,0.8-0.8c0-0.3-0.2-0.5-0.5-0.5c0,0-0.1,0-0.1,0l-0.1-2.1L10.8,9.5C10.7,9.5,10.8,9.5,10.8,9.5z"/></svg>